<svg width="19" height="19" viewBox="0 0 19 19" fill="none" xmlns="http://www.w3.org/2000/svg">
<path d="M9.19995 0.100342C14.2257 0.100342 18.2996 4.17416 18.2996 9.19995C18.2996 14.2257 14.2257 18.2996 9.19995 18.2996C4.17416 18.2996 0.100342 14.2257 0.100342 9.19995C0.100342 4.17416 4.17416 0.100342 9.19995 0.100342Z" stroke="#5C5C5C" stroke-width="0.2"/>
<path d="M9.19995 9.99284L6.93157 7.3464C6.7642 7.15114 6.49284 7.15114 6.32548 7.3464C6.15811 7.54166 6.15811 7.85824 6.32548 8.0535L8.89691 11.0535C9.06427 11.2488 9.33563 11.2488 9.503 11.0535L12.0744 8.0535C12.2418 7.85824 12.2418 7.54166 12.0744 7.3464C11.9071 7.15114 11.6357 7.15114 11.4683 7.3464L9.19995 9.99284Z" fill="#565656"/>
<mask id="mask0_1_1549" style="mask-type:luminance" maskUnits="userSpaceOnUse" x="6" y="7" width="7" height="5">
<path d="M9.19995 9.99284L6.93157 7.3464C6.7642 7.15114 6.49284 7.15114 6.32548 7.3464C6.15811 7.54166 6.15811 7.85824 6.32548 8.0535L8.89691 11.0535C9.06427 11.2488 9.33563 11.2488 9.503 11.0535L12.0744 8.0535C12.2418 7.85824 12.2418 7.54166 12.0744 7.3464C11.9071 7.15114 11.6357 7.15114 11.4683 7.3464L9.19995 9.99284Z" fill="white"/>
</mask>
<g mask="url(#mask0_1_1549)">
</g>
</svg>
