<svg width="20" height="20" viewBox="0 0 20 20" fill="none" xmlns="http://www.w3.org/2000/svg">
<path d="M5.00001 5.83325H14.1667C15.0872 5.83325 15.8333 6.57944 15.8333 7.49992V7.91659C15.8333 8.1467 16.0199 8.33325 16.25 8.33325C16.4801 8.33325 16.6667 8.5198 16.6667 8.74992V11.2499C16.6667 11.48 16.4801 11.6666 16.25 11.6666C16.0199 11.6666 15.8333 11.8531 15.8333 12.0833V12.4999C15.8333 13.4204 15.0872 14.1666 14.1667 14.1666H5.00001C4.07954 14.1666 3.33334 13.4204 3.33334 12.4999V7.49992C3.33334 6.57944 4.07954 5.83325 5.00001 5.83325" stroke="#4B465C" stroke-linecap="round" stroke-linejoin="round"/>
<path d="M5.00001 5.83325H14.1667C15.0872 5.83325 15.8333 6.57944 15.8333 7.49992V7.91659C15.8333 8.1467 16.0199 8.33325 16.25 8.33325C16.4801 8.33325 16.6667 8.5198 16.6667 8.74992V11.2499C16.6667 11.48 16.4801 11.6666 16.25 11.6666C16.0199 11.6666 15.8333 11.8531 15.8333 12.0833V12.4999C15.8333 13.4204 15.0872 14.1666 14.1667 14.1666H5.00001C4.07954 14.1666 3.33334 13.4204 3.33334 12.4999V7.49992C3.33334 6.57944 4.07954 5.83325 5.00001 5.83325" stroke="white" stroke-opacity="0.1" stroke-linecap="round" stroke-linejoin="round"/>
<path d="M5.83332 8.33325V11.6666" stroke="#4B465C" stroke-linecap="round" stroke-linejoin="round"/>
<path d="M5.83332 8.33325V11.6666" stroke="white" stroke-opacity="0.1" stroke-linecap="round" stroke-linejoin="round"/>
<path d="M8.33332 8.33325V11.6666" stroke="#4B465C" stroke-linecap="round" stroke-linejoin="round"/>
<path d="M8.33332 8.33325V11.6666" stroke="white" stroke-opacity="0.1" stroke-linecap="round" stroke-linejoin="round"/>
<path d="M10.8333 8.33325V11.6666" stroke="#4B465C" stroke-linecap="round" stroke-linejoin="round"/>
<path d="M10.8333 8.33325V11.6666" stroke="white" stroke-opacity="0.1" stroke-linecap="round" stroke-linejoin="round"/>
<path d="M13.3333 8.33325V11.6666" stroke="#4B465C" stroke-linecap="round" stroke-linejoin="round"/>
<path d="M13.3333 8.33325V11.6666" stroke="white" stroke-opacity="0.1" stroke-linecap="round" stroke-linejoin="round"/>
</svg>
