<svg width="16" height="13" viewBox="0 0 16 13" fill="none" xmlns="http://www.w3.org/2000/svg">
<path d="M0.5 4.66667V9.66667M8 0.5V3M6.33333 0.5H9.66667M2.16667 7.16667H0.5M3 4.66667H4.66667L6.33333 3H9.15167C9.30638 3.00008 9.45803 3.04324 9.5896 3.12463C9.72118 3.20602 9.82751 3.32243 9.89667 3.46083L11.1033 5.8725C11.1725 6.0109 11.2788 6.12732 11.4104 6.20871C11.542 6.2901 11.6936 6.33325 11.8483 6.33333H13V4.66667H14.6667C14.8877 4.66667 15.0996 4.75446 15.2559 4.91074C15.4122 5.06703 15.5 5.27899 15.5 5.5V10.5C15.5 10.721 15.4122 10.933 15.2559 11.0893C15.0996 11.2455 14.8877 11.3333 14.6667 11.3333H13V9.66667H10.5V11.3333C10.5 11.5543 10.4122 11.7663 10.2559 11.9226C10.0996 12.0789 9.88768 12.1667 9.66667 12.1667H6.77917C6.64201 12.1667 6.50696 12.1329 6.38601 12.0682C6.26507 12.0035 6.16196 11.9099 6.08583 11.7958L4.66667 9.66667H3V4.66667Z" stroke="#28C76F" stroke-linecap="round" stroke-linejoin="round"/>
</svg>
