<svg width="20" height="20" viewBox="0 0 20 20" fill="none" xmlns="http://www.w3.org/2000/svg">
<path d="M9.88334 1.66675L9.45 3.27508C13.125 3.98341 16 6.85841 16.7083 10.5417L18.3333 10.1084C17.4583 5.85842 14.1333 2.53341 9.88334 1.66675ZM9.01667 4.88341L8.58334 6.50841C11.1167 6.89175 13.1 8.87508 13.4833 11.4001L15.1 10.9667C14.55 7.86675 12.125 5.41675 9.01667 4.88341ZM3.1 8.07508C2.56547 9.24339 2.38171 10.5418 2.57107 11.8125C2.76043 13.0833 3.31474 14.2717 4.16667 15.2334V18.3334H6.66667V17.0084C7.45834 17.3334 8.30834 17.5001 9.16667 17.5001C10.1167 17.5001 11.0583 17.2917 11.9167 16.9001L3.1 8.07508ZM8.15834 8.13342L7.71667 9.76675C8.37971 9.76675 9.0156 10.0301 9.48444 10.499C9.95328 10.9678 10.2167 11.6037 10.2167 12.2667L11.8583 11.8334C11.6667 9.88342 10.1083 8.33342 8.15834 8.13342Z" fill="#BABABA"/>
<path d="M8.58471 6.50806L9.01804 4.88306C12.1264 5.41639 14.5514 7.86639 15.1014 10.9664L13.4847 11.3997C13.1014 8.87472 11.118 6.89139 8.58471 6.50806Z" fill="#1A1A1A"/>
<path d="M2.57244 11.8122C2.38309 10.5414 2.56684 9.24303 3.10138 8.07472L11.918 16.8997C11.0597 17.2914 10.118 17.4997 9.16804 17.4997C8.30971 17.4997 7.45971 17.3331 6.66804 17.0081V18.3331H4.16804V15.2331C3.31611 14.2714 2.7618 13.0829 2.57244 11.8122Z" fill="#1A1A1A"/>
<path d="M7.71805 9.76639L8.15971 8.13306C10.1097 8.33306 11.668 9.88306 11.8597 11.8331L10.218 12.2664C10.218 11.6033 9.95465 10.9675 9.48581 10.4986C9.01697 10.0298 8.38109 9.76639 7.71805 9.76639Z" fill="#1A1A1A"/>
</svg>
