<svg width="17" height="15" viewBox="0 0 17 15" fill="none" xmlns="http://www.w3.org/2000/svg">
<path d="M16.0759 5.07325L14.8853 0.906583C14.8099 0.645853 14.652 0.41659 14.4353 0.253148C14.2186 0.0897068 13.9548 0.000887751 13.6833 0H2.44068C2.16926 0.000887751 1.90543 0.0897068 1.68873 0.253148C1.47203 0.41659 1.31413 0.645853 1.23868 0.906583L0.0480996 5.07325C-0.00505749 5.25929 -0.0143011 5.45513 0.0210969 5.64535C0.0564948 5.83557 0.135568 6.01498 0.25209 6.16944C0.368611 6.32391 0.5194 6.44922 0.692582 6.5355C0.865765 6.62178 1.05661 6.66668 1.2501 6.66667H1.39535V12.9167C1.39601 13.469 1.61572 13.9985 2.00627 14.3891C2.39683 14.7796 2.92635 14.9993 3.47868 15H9.31202C9.42252 15 9.5285 14.9561 9.60664 14.878C9.68478 14.7998 9.72868 14.6938 9.72868 14.5833C9.72868 14.4728 9.68478 14.3668 9.60664 14.2887C9.5285 14.2106 9.42252 14.1667 9.31202 14.1667H3.47868C3.14728 14.1663 2.82955 14.0345 2.59521 13.8001C2.36087 13.5658 2.22906 13.2481 2.22868 12.9167V6.66667H13.8953V9.58333C13.8953 9.69384 13.9392 9.79982 14.0174 9.87796C14.0955 9.9561 14.2015 10 14.312 10C14.4225 10 14.5285 9.9561 14.6066 9.87796C14.6848 9.79982 14.7287 9.69384 14.7287 9.58333V6.66667H14.8739C15.0674 6.66668 15.2583 6.62178 15.4314 6.5355C15.6046 6.44922 15.7554 6.32391 15.8719 6.16944C15.9885 6.01498 16.0675 5.83557 16.1029 5.64535C16.1383 5.45513 16.1291 5.25929 16.0759 5.07325ZM15.2068 5.66775C15.168 5.71938 15.1178 5.76124 15.06 5.78999C15.0022 5.81874 14.9385 5.83358 14.8739 5.83333H1.2501C1.18559 5.83337 1.12195 5.8184 1.06422 5.78962C1.00649 5.76083 0.95624 5.71902 0.917444 5.66747C0.878649 5.61593 0.852369 5.55608 0.840681 5.49263C0.828994 5.42919 0.832218 5.3639 0.850099 5.30192L2.04068 1.13525C2.06571 1.04842 2.11823 0.972055 2.19036 0.917616C2.26248 0.863177 2.35032 0.833603 2.44068 0.833333H13.6833C13.7737 0.833603 13.8615 0.863177 13.9337 0.917616C14.0058 0.972055 14.0583 1.04842 14.0833 1.13525L15.2739 5.30192C15.2921 5.3639 15.2955 5.42928 15.2838 5.49281C15.2721 5.55634 15.2458 5.61626 15.2068 5.66775Z" fill="#1A1A1A"/>
<path d="M14.1899 13.8721L12.7149 12.397C13.0008 11.9652 13.1161 11.4425 13.0384 10.9304C12.9607 10.4184 12.6956 9.95339 12.2945 9.6257C11.8935 9.29801 11.385 9.13095 10.8677 9.15693C10.3504 9.18291 9.86124 9.40007 9.49501 9.7663C9.12879 10.1325 8.91162 10.6217 8.88564 11.139C8.85966 11.6563 9.02672 12.1647 9.35441 12.5658C9.6821 12.9669 10.1471 13.232 10.6591 13.3097C11.1712 13.3873 11.6939 13.2721 12.1258 12.9862L13.6008 14.4612C13.6793 14.5371 13.7846 14.5791 13.8938 14.5782C14.0031 14.5772 14.1076 14.5334 14.1849 14.4561C14.2621 14.3789 14.3059 14.2744 14.3069 14.1651C14.3078 14.0559 14.2658 13.9506 14.1899 13.8721ZM9.72868 11.25C9.72824 11.0448 9.77831 10.8427 9.87446 10.6614C9.97062 10.4802 10.1099 10.3254 10.28 10.2108C10.4502 10.0961 10.6459 10.0251 10.85 10.0039C11.054 9.9828 11.2602 10.0122 11.4502 10.0896C11.6402 10.167 11.8082 10.29 11.9395 10.4477C12.0707 10.6054 12.1611 10.7929 12.2027 10.9938C12.2443 11.1948 12.2358 11.4028 12.178 11.5997C12.1202 11.7965 12.0148 11.9761 11.8711 12.1226C11.8675 12.1259 11.8628 12.127 11.8592 12.1305C11.8556 12.134 11.8546 12.1388 11.8513 12.1424C11.6757 12.3148 11.4531 12.4315 11.2115 12.4777C10.9698 12.524 10.7199 12.4978 10.493 12.4024C10.2662 12.3071 10.0726 12.1468 9.93665 11.9417C9.80065 11.7367 9.7283 11.496 9.72868 11.25Z" fill="#1A1A1A"/>
</svg>
